<svg version="1.1" id="Layer_1" xmlns="http://www.w3.org/2000/svg" xmlns:xlink="http://www.w3.org/1999/xlink" x="0px" y="0px"
	 width="100%" viewBox="0 0 496 496" enable-background="new 0 0 496 496" xml:space="preserve">
<path fill="#000000" opacity="1.000000" stroke="none" 
	d="
M286.327393,265.000061 
	C286.326904,289.319702 286.159760,313.141327 286.447784,336.957458 
	C286.515991,342.595520 283.875336,343.165039 279.459991,343.056305 
	C272.588257,342.887024 272.071716,342.668579 272.067200,336.820526 
	C272.042816,305.172180 272.065460,273.523834 272.053406,241.875504 
	C272.050537,234.339462 272.017975,234.336136 264.713287,234.335968 
	C261.381897,234.335892 257.997711,234.736328 254.729141,234.287521 
	C245.529846,233.024414 237.526566,237.035889 227.946121,239.693481 
	C241.524200,256.904510 254.700485,273.606293 267.975067,290.432617 
	C259.680023,294.081726 251.714127,292.249664 246.759888,286.029205 
	C235.554138,271.959442 224.333939,257.901123 213.099884,243.853958 
	C212.077057,242.574966 211.288040,241.034943 209.573776,240.437042 
	C205.720184,239.092972 203.286530,240.851044 203.258347,245.332703 
	C203.174545,258.657776 203.253220,271.983917 203.164276,285.308899 
	C203.149734,287.486389 204.239624,290.586029 201.317871,291.430267 
	C197.680649,292.481201 193.717957,292.716858 190.113281,291.036987 
	C188.591171,290.327667 188.922867,288.409302 188.922272,286.937958 
	C188.908432,252.624359 188.917542,218.310745 188.911102,183.997147 
	C188.910629,181.466858 189.268616,179.045029 192.472153,179.110382 
	C207.730423,179.421585 223.071838,177.635101 238.189697,181.403473 
	C262.330719,187.420975 264.102356,212.928009 253.560593,226.491058 
	C252.984360,227.232437 252.594666,228.118774 252.077118,229.008148 
	C254.295807,230.478867 256.509094,229.961319 258.591461,229.967346 
	C276.580933,230.019394 294.570587,230.002121 312.560211,230.011856 
	C314.058777,230.012665 315.563721,229.983383 317.053986,230.108139 
	C318.370453,230.218323 319.910034,230.350510 319.977692,232.139053 
	C320.062286,234.375031 318.255554,234.276627 316.799408,234.286285 
	C308.471222,234.341476 300.133209,234.574448 291.817841,234.251175 
	C287.282318,234.074829 286.074249,235.739349 286.223785,240.018036 
	C286.508667,248.169952 286.319519,256.338440 286.327393,265.000061 
M221.638931,235.201340 
	C242.989059,231.970963 247.657639,217.332428 243.522507,199.332672 
	C242.152390,193.368729 238.157059,189.114441 232.569626,186.435837 
	C224.073135,182.362595 215.012619,183.384888 206.067169,183.482910 
	C203.637207,183.509537 203.268127,185.456970 203.266159,187.423889 
	C203.251541,202.079727 203.286346,216.735779 203.205734,231.391220 
	C203.187561,234.692520 204.761993,235.828110 207.813965,235.724380 
	C212.138077,235.577454 216.465439,235.525620 221.638931,235.201340 
z"/>
<path fill="#000000" opacity="1.000000" stroke="none" 
	d="
M257.770264,405.181519 
	C156.461639,407.086273 97.472267,324.696960 100.799988,253.115967 
	C102.931183,296.219269 118.623940,333.038849 150.883133,362.050934 
	C183.187714,391.103882 221.326614,403.973053 264.394073,400.286194 
	C302.515930,397.022766 334.913513,380.877014 361.065918,352.614349 
	C387.150604,324.424896 399.914062,290.905029 400.980896,252.628433 
	C401.411713,252.674500 401.842560,252.720581 402.273376,252.766647 
	C402.273376,258.067505 402.788086,263.427277 402.188873,268.659515 
	C398.615509,299.862244 387.333923,327.970276 366.902008,351.966431 
	C343.936981,378.937653 314.654724,395.434448 279.975159,402.281433 
	C272.821655,403.693726 265.493134,404.219269 257.770264,405.181519 
z"/>
<path fill="#000000" opacity="1.000000" stroke="none" 
	d="
M383.501404,189.368393 
	C379.946167,189.463928 376.852966,191.208328 373.540710,189.766678 
	C380.845520,187.436768 388.282532,185.933609 397.011841,185.305603 
	C393.233673,191.624451 387.273987,194.888382 383.877747,200.620499 
	C389.922729,203.374588 396.538025,202.705109 402.589905,205.369064 
	C400.382294,208.468903 396.940613,208.978790 394.053314,210.380203 
	C391.358032,211.688446 388.670563,213.032822 385.892517,214.143341 
	C384.099182,214.860229 381.735443,217.316086 380.368652,214.308350 
	C379.167603,211.665359 382.398132,211.495834 383.927185,210.541336 
	C386.516144,208.925171 389.784637,208.427277 392.293579,205.739227 
	C387.389191,203.083710 381.789398,204.372055 377.214508,201.394775 
	C379.507568,196.466461 384.653351,194.137207 387.122711,189.613098 
	C386.057159,188.305130 384.912506,189.546204 383.501404,189.368393 
z"/>
<path fill="#000000" opacity="1.000000" stroke="none" 
	d="
M378.124146,179.141663 
	C376.061829,180.852875 374.320740,182.403351 372.473480,183.814880 
	C371.512604,184.549118 370.299438,184.926697 369.364288,183.749023 
	C368.445282,182.591690 369.042755,181.553314 369.951447,180.688065 
	C372.791901,177.983383 376.306702,175.977753 378.999634,172.148605 
	C373.507721,170.983963 368.367676,173.689590 363.119293,171.620987 
	C364.274872,166.313126 368.108002,162.338806 370.349976,157.057007 
	C365.265869,158.182449 361.448303,161.859146 356.332764,161.599838 
	C362.637634,157.428329 369.404449,154.281494 377.485718,151.317551 
	C375.677490,158.612137 370.766235,163.431931 368.523071,170.047821 
	C375.328888,169.630478 381.661072,169.242172 388.697754,168.810669 
	C386.125366,173.920303 381.567474,175.720474 378.124146,179.141663 
z"/>
<path fill="#000000" opacity="1.000000" stroke="none" 
	d="
M169.717377,128.308899 
	C166.820129,125.159195 167.114120,122.781151 170.641418,120.895050 
	C172.105087,120.112404 173.498810,119.178474 175.012726,118.515068 
	C177.366867,117.483475 179.821854,116.861397 182.062073,118.780861 
	C184.339783,120.732414 184.722824,123.299294 184.079254,126.074387 
	C183.858612,127.025787 183.419647,127.926552 183.047668,128.939682 
	C186.126999,131.871475 190.885086,130.864868 193.917084,133.884125 
	C192.294785,137.407410 189.757751,135.819214 187.534363,135.262634 
	C185.133224,134.661560 182.807999,133.683029 180.206207,134.054642 
	C179.295822,135.835571 180.899704,136.786377 181.429718,138.054245 
	C182.064636,139.573059 184.494064,141.215256 182.048538,142.668427 
	C179.868256,143.963959 178.964798,141.410339 177.964966,140.047195 
	C175.206421,136.286285 172.585297,132.424606 169.717377,128.308899 
M179.504227,122.230324 
	C176.268524,119.052910 174.066528,121.025818 171.582870,123.812195 
	C174.152161,125.745872 173.946991,130.976212 178.455994,129.505371 
	C181.296661,128.578766 181.584915,125.531990 179.504227,122.230324 
z"/>
<path fill="#000000" opacity="1.000000" stroke="none" 
	d="
M281.295959,111.324699 
	C282.523682,106.772141 283.657379,102.608711 284.694794,98.421425 
	C285.360138,95.735886 286.545227,94.275291 289.621277,95.377495 
	C291.797729,96.157341 294.145691,96.448112 296.346802,97.171150 
	C303.797760,99.618660 306.652069,104.633774 304.719604,111.679451 
	C302.715118,118.987701 296.935608,122.484200 289.492249,120.875732 
	C288.194977,120.595383 286.903625,120.280205 285.622925,119.931831 
	C279.391449,118.236816 279.340332,118.133530 281.295959,111.324699 
M297.320648,100.138519 
	C289.230255,96.546562 289.233795,96.547485 287.105347,104.754028 
	C286.395111,107.492554 285.858582,110.297043 284.891815,112.943207 
	C283.474487,116.822739 285.397919,118.099998 288.741608,118.609764 
	C293.482758,119.332603 297.250061,118.185669 299.588867,113.575455 
	C302.387726,108.058395 302.075165,104.905273 297.320648,100.138519 
z"/>
<path fill="#000000" opacity="1.000000" stroke="none" 
	d="
M220.140427,112.488960 
	C220.445404,122.150558 214.584122,128.361221 205.802078,128.178726 
	C198.223419,128.021225 193.031982,121.511665 193.682083,112.981392 
	C194.126999,107.143578 198.933609,102.702522 205.848373,101.740395 
	C212.674438,100.790596 217.278671,104.137665 220.140427,112.488960 
M213.025238,107.456520 
	C208.437180,103.346733 203.704987,103.176926 199.827560,106.982948 
	C196.178909,110.564400 196.391907,116.927055 200.331619,122.039955 
	C203.557587,126.226578 208.019592,126.850502 212.686508,123.767555 
	C217.917450,120.312035 218.171829,115.460739 213.025238,107.456520 
z"/>
<path fill="#000000" opacity="1.000000" stroke="none" 
	d="
M253.662476,109.801102 
	C253.728897,107.689575 253.709106,106.018593 253.868973,104.364960 
	C254.233475,100.594398 254.685989,96.832336 255.200912,92.179817 
	C262.033905,97.346413 265.497589,104.833008 271.883057,110.285507 
	C273.727844,104.689476 271.575989,99.123611 273.331726,93.851898 
	C274.970642,95.849762 274.692291,112.953323 272.753326,117.882179 
	C267.493927,111.711151 262.513428,105.867393 256.677032,99.019348 
	C256.177582,105.278625 256.414795,110.526512 254.605011,116.365395 
	C253.249496,113.953819 253.830353,112.023460 253.662476,109.801102 
z"/>
<path fill="#000000" opacity="1.000000" stroke="none" 
	d="
M367.565063,141.117462 
	C364.520630,145.664444 360.773468,149.232025 356.893036,152.588928 
	C352.454041,156.429062 347.848541,156.033646 344.014313,152.016556 
	C339.802094,147.603394 339.647186,143.420944 343.765839,138.756668 
	C346.628876,135.514328 349.692352,132.446487 352.721924,129.355255 
	C353.659302,128.398819 354.820435,127.412643 356.148407,128.738083 
	C357.492188,130.079300 356.398529,131.200836 355.518097,132.174713 
	C352.505066,135.507507 349.349213,138.715164 346.422089,142.120361 
	C344.157104,144.755234 343.229889,147.628052 346.201813,150.515137 
	C349.243439,153.469971 352.450134,153.513260 355.516174,150.754364 
	C358.357941,148.197296 360.879883,145.285782 363.708008,142.712021 
	C364.743317,141.769821 365.368042,139.489624 367.565063,141.117462 
z"/>
<path fill="#000000" opacity="1.000000" stroke="none" 
	d="
M245.698227,115.098938 
	C242.271271,119.589287 237.806610,120.189766 233.300400,118.950287 
	C228.997162,117.766655 228.136276,113.723679 227.613571,109.800850 
	C227.013184,105.294922 225.141953,100.894363 226.073608,96.365395 
	C228.577988,95.509346 229.148712,96.800453 229.436996,98.446342 
	C230.094910,102.202469 230.732819,105.962112 231.400177,109.716545 
	C232.359360,115.112610 234.940094,117.396072 239.239105,116.681747 
	C243.494781,115.974609 245.321014,112.280609 244.353256,106.975853 
	C243.595718,102.823380 242.279053,98.686844 243.405884,94.337593 
	C245.844681,100.927910 247.073395,107.671646 245.698227,115.098938 
z"/>
<path fill="#000000" opacity="1.000000" stroke="none" 
	d="
M405.513397,237.022171 
	C402.736328,235.983627 400.220734,235.065796 397.892731,233.802338 
	C394.407501,231.910843 390.952637,230.800858 386.924927,232.004028 
	C385.284088,232.494156 382.745789,232.987183 382.304626,230.586700 
	C381.832855,228.019806 384.576294,227.739838 386.133209,227.899231 
	C391.715332,228.470673 395.510712,225.197220 399.596741,222.362686 
	C401.293945,221.185303 402.692932,219.213394 405.965027,219.907761 
	C406.086487,225.965149 399.027008,225.877792 397.098846,230.262161 
	C398.728058,232.063477 401.232819,232.624405 403.246735,233.935989 
	C404.353607,234.656830 406.660339,234.567184 405.513397,237.022171 
z"/>
<path fill="#000000" opacity="1.000000" stroke="none" 
	d="
M344.498962,119.159729 
	C345.431183,119.856194 346.134521,120.326225 346.113922,121.603485 
	C343.800903,122.557213 342.518280,119.714790 339.534119,119.945152 
	C336.738037,124.285736 333.682190,129.162415 330.471405,133.934845 
	C329.480042,135.408356 328.658142,138.293076 326.121674,136.467987 
	C323.983612,134.929565 326.135559,133.191925 326.980774,131.766846 
	C328.672089,128.915237 330.560272,126.180557 332.359100,123.392426 
	C336.096161,117.600220 336.094025,117.598831 331.074860,111.541115 
	C336.766785,113.572906 340.234924,116.783119 344.498962,119.159729 
z"/>
<path fill="#000000" opacity="1.000000" stroke="none" 
	d="
M212.254776,375.041321 
	C213.775070,376.038055 215.111450,376.745422 216.236206,377.701721 
	C217.494110,378.771271 217.826813,380.370697 217.139084,381.804169 
	C215.299713,385.638000 211.863708,384.957336 208.946259,383.889008 
	C206.051483,382.828979 204.088806,380.649719 206.068924,376.672302 
	C208.713882,378.652466 209.470627,383.449158 213.925110,381.084076 
	C213.970612,378.225128 211.457977,378.103729 209.985977,377.040009 
	C207.624664,375.333679 206.559601,373.209473 208.224548,370.668793 
	C210.030350,367.913239 212.692764,368.294037 215.319031,369.556549 
	C218.470657,371.071594 218.868668,372.146881 217.534348,375.596741 
	C215.645340,375.243042 215.736588,372.906982 214.145004,372.224335 
	C213.022919,371.743073 211.874069,371.208282 211.025208,372.415253 
	C210.269104,373.490387 211.181671,374.224640 212.254776,375.041321 
z"/>
<path fill="#000000" opacity="1.000000" stroke="none" 
	d="
M203.313385,373.080048 
	C201.584641,376.765045 199.140076,378.693390 195.275299,378.272766 
	C192.179184,377.935760 189.925934,376.291870 188.874588,373.418243 
	C187.732361,370.296234 188.804703,367.487915 190.978165,365.147217 
	C193.402451,362.536346 196.295380,361.819824 199.546921,363.574707 
	C203.251404,365.574097 204.728989,368.569733 203.313385,373.080048 
M198.411621,374.880096 
	C200.724304,372.967133 201.547318,370.585358 200.183441,367.844757 
	C199.307037,366.083649 197.632156,365.209625 195.623367,365.608856 
	C193.209885,366.088593 192.049713,367.900787 191.591110,370.133057 
	C190.865356,373.665680 193.138504,375.506744 198.411621,374.880096 
z"/>
<path fill="#000000" opacity="1.000000" stroke="none" 
	d="
M266.417542,378.587494 
	C266.884674,376.407562 267.131378,374.540436 269.920624,373.779358 
	C273.157104,377.780273 275.670807,382.345459 277.569702,388.072235 
	C272.475098,383.374847 268.525543,384.926422 264.808105,390.245483 
	C263.522583,385.515656 265.821381,382.366089 266.417542,378.587494 
z"/>
<path fill="#000000" opacity="1.000000" stroke="none" 
	d="
M179.686234,357.398987 
	C181.757339,362.554352 182.195328,362.610748 189.784180,358.324554 
	C187.879684,363.885162 185.166016,367.751587 181.483871,371.831482 
	C179.972900,368.420532 184.554031,365.465149 180.109421,362.826447 
	C175.790436,360.262299 175.657974,366.028595 171.885391,365.486969 
	C173.542175,360.616577 176.439041,356.910522 179.382568,352.998718 
	C181.706985,354.579468 180.113495,355.854523 179.686234,357.398987 
z"/>
<path fill="#000000" opacity="1.000000" stroke="none" 
	d="
M224.636353,383.910309 
	C223.257706,384.708160 223.464844,386.640808 221.320251,386.737122 
	C219.968613,381.821960 221.483887,377.152344 223.698120,373.284912 
	C224.893982,371.196167 228.654022,372.721436 231.019424,373.981262 
	C233.282959,375.186859 234.343643,377.226715 233.717758,379.798126 
	C233.055359,382.519653 231.173447,384.012054 228.379501,384.143951 
	C227.247284,384.197418 226.098541,383.901001 224.636353,383.910309 
M228.909836,375.952576 
	C226.639801,375.132141 225.492416,376.382385 224.799484,378.276062 
	C224.326141,379.569611 224.939209,380.519623 226.095795,381.112549 
	C227.418182,381.790466 228.703583,381.623627 229.711487,380.551849 
	C231.073776,379.103180 231.034561,377.626556 228.909836,375.952576 
z"/>
<path fill="#000000" opacity="1.000000" stroke="none" 
	d="
M237.857086,375.731873 
	C240.799255,374.100525 243.548035,374.684967 246.640778,375.559937 
	C242.071030,380.489136 241.842667,385.271240 245.611221,389.216827 
	C241.958435,390.871216 241.569061,390.860809 236.578094,388.784973 
	C238.455765,387.122070 240.096268,385.531281 240.123428,382.813202 
	C240.149796,380.172272 239.619751,377.979797 237.857086,375.731873 
z"/>
<path fill="#000000" opacity="1.000000" stroke="none" 
	d="
M297.854858,369.548889 
	C298.718079,373.451050 298.951324,377.561035 304.175842,378.414764 
	C301.959198,381.558868 299.028046,381.967102 295.824860,382.338959 
	C298.192352,376.298676 296.424347,371.661285 290.978821,369.802765 
	C293.273712,366.926208 296.218781,366.265961 299.408478,366.127533 
	C300.041260,367.932526 298.504150,368.311890 297.854858,369.548889 
z"/>
<path fill="#000000" opacity="1.000000" stroke="none" 
	d="
M313.241699,360.308197 
	C312.897522,362.358673 310.388092,362.516418 309.686859,364.382874 
	C310.382111,368.100861 313.679443,371.075043 313.570709,375.692413 
	C308.023438,373.692810 310.271790,363.387268 301.428894,365.998993 
	C304.536987,362.559662 308.228912,361.031494 312.564392,359.925293 
	C313.040070,360.062012 313.241699,360.308197 313.241699,360.308197 
z"/>
<path fill="#000000" opacity="1.000000" stroke="none" 
	d="
M312.936462,359.941254 
	C315.491241,355.326416 318.337646,360.901276 321.177094,359.582977 
	C322.737946,357.695831 320.540314,354.694611 323.615692,352.216705 
	C324.596527,357.629089 324.147461,362.878571 326.536591,367.767975 
	C322.679565,364.233398 318.801636,361.417816 313.580841,360.317200 
	C313.241699,360.308197 313.040070,360.062012 312.936462,359.941254 
z"/>
<path fill="#000000" opacity="1.000000" stroke="none" 
	d="
M253.641479,380.644287 
	C253.765610,377.040588 250.560760,377.884918 248.388870,376.051270 
	C252.734787,374.234528 256.521362,374.379059 261.101654,375.329834 
	C259.230743,377.746735 255.663803,378.123352 256.252716,381.779694 
	C256.644196,384.210205 256.735748,386.903076 255.501144,390.129242 
	C252.842346,386.886322 254.066528,383.805878 253.641479,380.644287 
z"/>
<path fill="#000000" opacity="1.000000" stroke="none" 
	d="
M282.438660,385.938721 
	C279.843689,381.643738 278.791443,377.273132 278.543915,372.039917 
	C281.837006,373.482819 281.600006,376.231659 282.040497,378.172607 
	C282.957886,382.215332 284.235596,384.765930 288.961029,382.689514 
	C289.783356,382.328186 290.878754,382.191803 291.977783,383.430969 
	C289.189636,385.652740 286.090851,386.164764 282.438660,385.938721 
z"/>
</svg>